# xmcd
#
# Track frame offsets:
#	150
#	19850
#	38086
#	55782
#	74085
#	87555
#	110933
#	128263
#	144398
#	161596
#	175736
#	192270
#	211651
#	232540
#	251517
#
# Disc length: 3681 seconds
#
# Revision: 0
# Processed by: cddbd v1.5.2PL0 Copyright (c) Steve Scherf et al.
# Submitted via: EasyCDDAExtractor 4.6.9.1
#
DISCID=c60e5f0f
DTITLE=Derek McCorkell - Country Collection Vol 1
DYEAR=2007
DGENRE=Country
TTITLE0=These_Lovin_Arms_Of_Mine
TTITLE1=Cletus_&_Verandah
TTITLE2=I_Fall_In_Love_Again
TTITLE3=She Took The Ring Off Her Finger
TTITLE4=That Look Again
TTITLE5=5_Weeks_In_The_Fall
TTITLE6=You'll Never Know What Lonesome Is
TTITLE7=Wishful Thinking
TTITLE8=When Love Slips Away
TTITLE9=Shes_My_Baby
TTITLE10=I Couldnt Fool my Heart
TTITLE11=Honky Tonk Kinda Night
TTITLE12=Houston We've A Problem
TTITLE13=What's My Angel Doing In Heaven Tonight
TTITLE14=Lying Next To You
EXTD=
EXTT0=
EXTT1=
EXTT2=
EXTT3=
EXTT4=
EXTT5=
EXTT6=
EXTT7=
EXTT8=
EXTT9=
EXTT10=
EXTT11=
EXTT12=
EXTT13=
EXTT14=
PLAYORDER=
